<?xml version="1.0" standalone="no"?>
<!DOCTYPE svg PUBLIC "-//W3C//DTD SVG 20010904//EN"
 "http://www.w3.org/TR/2001/REC-SVG-20010904/DTD/svg10.dtd">
<svg version="1.0" xmlns="http://www.w3.org/2000/svg"
 width="1280.000000pt" height="866.000000pt" viewBox="0 0 1280.000000 866.000000"
 preserveAspectRatio="xMidYMid meet">
<g transform="translate(0.000000,866.000000) scale(0.100000,-0.100000)"
fill="#ff5722" stroke="none">
<path d="M1881 8547 c-73 -137 -278 -474 -369 -607 -108 -159 -158 -223 -310
-393 -129 -145 -245 -288 -325 -401 -26 -37 -52 -64 -58 -61 -6 4 -8 34 -4 78
8 94 34 294 41 310 3 8 25 13 62 12 49 0 65 5 96 28 45 35 118 126 113 141 -6
17 -113 19 -170 2 -28 -8 -54 -13 -59 -10 -17 11 50 220 108 337 38 79 42 92
35 130 l-8 42 -70 -145 c-76 -156 -163 -367 -163 -393 0 -62 -137 68 -190 179
-24 50 -33 85 -37 143 -5 69 7 226 23 324 6 36 6 37 -24 37 -20 0 -32 -6 -36
-17 -3 -10 -10 -91 -15 -180 -19 -307 7 -430 131 -613 32 -48 58 -92 58 -98 0
-18 -18 -15 -50 8 -45 32 -159 83 -174 77 -10 -4 -11 -18 -5 -60 15 -115 81
-212 151 -224 21 -3 40 -9 43 -13 5 -8 -24 -122 -35 -133 -4 -5 -41 25 -81 65
-57 57 -96 85 -167 122 -109 55 -108 56 -98 -68 15 -199 105 -326 230 -326 80
0 77 -11 -60 -221 -138 -211 -219 -387 -269 -584 -23 -94 -29 -101 -77 -80
-16 6 -18 1 -18 -38 0 -37 5 -49 25 -64 23 -16 26 -29 40 -153 23 -205 20
-358 -9 -493 -23 -105 -24 -123 -16 -287 8 -185 24 -254 72 -315 16 -20 29
-74 54 -219 19 -105 34 -205 34 -222 0 -27 -10 -38 -72 -85 -39 -30 -84 -70
-99 -89 -35 -43 -72 -179 -94 -340 -8 -63 -20 -151 -26 -195 -14 -100 -10
-145 30 -318 17 -76 38 -184 46 -240 30 -219 43 -1008 36 -2192 -2 -461 0
-627 9 -646 6 -14 27 -33 45 -44 33 -17 51 -17 372 -6 626 21 873 35 873 47 0
4 -435 1387 -606 1929 -53 165 -154 479 -225 697 -71 218 -137 427 -145 465
-22 98 -30 308 -15 384 16 78 45 141 83 179 112 113 737 291 1263 361 195 26
581 32 710 11 120 -20 231 -50 301 -82 77 -35 220 -131 294 -199 l55 -50 -32
-26 c-40 -32 -57 -83 -49 -149 7 -60 34 -146 46 -146 12 0 74 78 93 115 8 17
18 45 22 63 3 17 13 32 20 32 12 0 75 -64 75 -76 0 -3 -10 -20 -22 -37 -33
-45 -29 -118 8 -188 32 -59 161 -202 175 -193 21 12 50 142 50 222 1 69 -3 92
-23 130 -27 52 -72 84 -127 88 -20 2 -39 3 -43 3 -10 1 -163 190 -163 202 0 6
27 20 60 30 88 28 140 60 139 87 -1 31 34 29 229 -13 357 -77 536 -143 717
-265 96 -65 238 -184 247 -206 3 -9 -6 -27 -21 -43 -49 -51 -54 -111 -18 -228
8 -29 19 -53 23 -53 17 0 89 95 105 138 30 81 27 82 135 -40 l68 -77 -21 -47
c-25 -59 -20 -111 17 -160 42 -55 179 -125 275 -140 39 -6 40 -6 40 24 0 42
-33 143 -63 195 -37 62 -98 115 -144 123 -39 7 -83 38 -83 60 0 7 23 17 52 23
28 6 72 21 97 32 l46 20 -30 25 c-58 47 -125 74 -184 74 -33 -1 -64 -7 -75
-15 -11 -8 -27 -15 -35 -15 -23 1 -136 129 -124 141 6 6 44 6 104 0 212 -22
562 -33 706 -22 367 27 1283 197 1518 281 50 18 104 32 120 32 17 0 91 -18
165 -41 154 -47 401 -102 570 -127 78 -11 185 -17 335 -18 l221 -1 39 -31 c61
-48 172 -118 254 -158 64 -33 72 -40 66 -59 -19 -66 -17 -97 9 -150 27 -56
168 -203 185 -193 19 12 34 110 29 197 -5 76 -3 89 10 89 33 0 188 -22 201
-29 10 -5 14 -27 15 -72 1 -84 30 -125 119 -168 62 -31 202 -61 279 -61 36 0
39 2 33 23 -17 60 -80 169 -130 224 -34 38 -51 64 -44 68 18 12 112 35 140 35
15 0 37 -12 54 -30 90 -93 238 -74 381 51 71 63 185 190 180 204 -10 33 -278
58 -377 35 -117 -27 -187 -82 -217 -166 l-18 -49 -86 -22 c-101 -25 -256 -39
-278 -24 -12 8 -4 20 43 62 69 61 125 142 178 253 l38 81 -68 3 c-136 6 -303
-50 -380 -127 -50 -50 -71 -98 -71 -165 0 -48 -3 -56 -19 -56 -56 0 -336 175
-336 210 0 9 39 35 95 63 177 91 394 209 511 278 64 38 123 69 132 69 9 0 18
-12 22 -29 16 -72 130 -131 283 -146 86 -8 87 -5 43 83 -40 78 -92 136 -146
162 -25 12 -45 27 -45 33 1 12 157 132 184 143 10 4 19 -11 30 -51 23 -76 89
-144 171 -175 84 -32 283 -39 426 -15 57 9 113 21 126 26 l24 9 -42 60 c-54
78 -183 200 -251 239 -69 41 -168 71 -228 71 -27 0 -52 4 -55 10 -5 9 63 110
75 110 3 1 33 2 67 3 76 4 126 34 171 104 51 81 92 230 92 340 l0 41 -37 -10
c-117 -32 -273 -136 -324 -216 -45 -71 -54 -115 -35 -173 9 -26 16 -53 16 -60
0 -34 -212 -269 -242 -269 -15 0 -17 7 -12 58 8 74 -22 202 -73 314 l-37 81
-52 -57 c-29 -31 -71 -95 -95 -141 -36 -73 -43 -95 -47 -163 -6 -103 7 -140
69 -196 27 -24 49 -48 49 -53 0 -14 -207 -136 -219 -129 -6 4 -4 23 6 52 12
35 14 72 11 152 -6 114 -32 214 -89 341 l-29 65 -36 -35 c-55 -52 -131 -156
-164 -223 -83 -172 -78 -319 16 -412 24 -25 44 -49 44 -53 0 -19 -410 -171
-530 -197 -131 -28 -540 -14 -790 27 -201 33 -371 96 -377 139 -1 10 66 49
205 117 320 158 581 321 727 455 76 70 203 221 299 357 123 174 130 176 551
175 221 -1 368 -6 474 -18 85 -9 190 -16 235 -16 141 1 246 51 514 245 l143
103 112 27 c295 71 453 89 520 61 18 -7 48 -30 67 -51 19 -21 47 -52 63 -68
15 -16 27 -33 27 -38 0 -5 -12 -28 -27 -51 -24 -35 -28 -52 -28 -107 0 -54 6
-76 30 -119 30 -56 131 -165 203 -221 l42 -33 15 35 c8 18 20 73 27 121 12 86
9 122 -23 256 -5 17 30 25 67 16 20 -5 24 -12 24 -47 0 -116 97 -185 278 -196
72 -5 82 -4 82 11 0 26 -44 107 -84 155 -20 24 -36 46 -36 50 0 5 32 11 71 14
66 6 75 4 123 -23 92 -52 179 -37 294 52 53 41 191 203 192 225 0 18 -135 36
-235 30 -166 -10 -263 -59 -298 -152 -11 -28 -23 -57 -27 -65 -12 -25 -106
-41 -205 -36 -215 12 -514 163 -503 254 3 25 9 28 142 62 135 34 139 34 150
16 6 -11 25 -35 41 -53 54 -60 170 -60 311 -2 l75 31 -23 25 c-13 14 -49 41
-80 60 -85 53 -76 68 39 64 88 -2 113 9 177 80 42 46 113 175 131 237 6 21 3
22 -42 22 -94 0 -236 -49 -302 -106 -45 -38 -75 -105 -66 -150 6 -34 5 -35
-57 -64 -35 -17 -71 -30 -80 -30 -9 0 -36 -8 -60 -19 -59 -25 -149 -44 -160
-33 -5 5 2 22 16 39 55 65 136 280 136 360 0 31 -19 30 -124 -6 -166 -55 -281
-151 -312 -258 -15 -51 -15 -61 -1 -112 11 -37 12 -59 6 -66 -6 -6 -88 -12
-189 -13 -204 -4 -212 -1 -132 58 25 19 169 130 319 247 267 208 419 310 638
430 173 95 228 122 237 117 4 -3 8 -17 8 -31 0 -41 30 -93 69 -119 48 -32 186
-66 250 -62 l51 3 -31 65 c-43 90 -90 144 -154 175 -30 15 -55 31 -55 35 0 11
22 27 52 39 22 8 31 6 55 -15 79 -70 152 -77 259 -25 53 27 93 58 172 137 56
57 102 107 102 112 0 13 -65 30 -160 44 -194 27 -368 -42 -399 -160 -10 -35
-17 -41 -119 -91 -60 -30 -114 -51 -119 -48 -7 4 -6 26 3 64 8 32 14 105 14
163 l0 105 78 52 c42 28 106 79 142 112 61 57 64 61 46 75 -32 26 -184 76
-280 92 -105 19 -191 13 -275 -17 -101 -36 -95 -36 -87 -3 11 41 127 244 141
244 6 0 19 -14 28 -30 43 -71 145 -82 287 -31 109 40 118 46 105 67 -14 22
-130 92 -174 104 -20 5 -64 10 -98 10 -74 0 -78 9 -29 63 31 34 35 36 67 27
48 -14 104 -12 144 4 80 34 167 156 225 315 17 45 30 84 30 86 0 12 -93 3
-162 -14 -144 -37 -257 -112 -298 -197 -19 -39 -22 -56 -16 -109 l6 -63 -123
-189 c-128 -194 -148 -219 -170 -210 -15 6 -82 241 -72 257 3 5 12 10 19 10
25 0 104 80 116 116 18 52 8 196 -18 271 -12 34 -36 92 -54 129 l-32 67 -36
-42 c-52 -60 -99 -141 -127 -219 -30 -82 -35 -190 -10 -238 15 -29 64 -77 101
-99 17 -10 29 -76 56 -301 10 -87 10 -105 -4 -138 -9 -21 -21 -36 -28 -34 -7
3 -18 27 -25 54 -18 74 -96 222 -161 311 -92 123 -84 123 -142 1 -65 -136 -90
-235 -90 -354 0 -111 24 -186 78 -246 60 -66 136 -97 183 -73 37 20 39 19 38
-7 -1 -30 -51 -151 -64 -155 -5 -1 -25 20 -42 47 -18 27 -59 70 -90 95 -67 52
-171 110 -181 100 -11 -11 -5 -159 8 -216 31 -131 107 -219 189 -219 16 0 33
-5 36 -10 5 -9 -103 -311 -123 -346 -4 -6 -213 -149 -465 -318 -463 -309 -563
-367 -727 -422 -83 -28 -91 -29 -290 -29 -233 1 -861 33 -873 45 -5 4 14 52
41 106 27 55 62 133 76 174 15 41 32 80 37 87 9 9 220 82 253 87 5 0 13 -12
19 -29 5 -16 18 -42 29 -57 37 -53 188 -103 291 -96 l48 3 -36 73 c-21 41 -58
93 -86 121 -27 27 -49 54 -49 60 0 7 14 17 30 23 17 5 67 28 112 49 45 22 84
36 88 32 4 -4 12 -34 19 -66 34 -158 188 -236 441 -223 121 6 278 31 294 47
28 26 -184 251 -292 310 -34 19 -60 39 -59 44 2 6 41 11 87 13 70 2 86 0 104
-16 36 -33 63 -42 124 -42 89 0 164 42 277 154 51 50 97 101 104 113 10 20 8
23 -26 33 -76 21 -180 32 -250 27 -40 -3 -75 -2 -77 2 -3 4 4 35 14 69 21 66
45 200 53 295 5 54 4 57 -16 57 -36 0 -178 -63 -259 -113 -191 -119 -292 -296
-243 -427 34 -91 36 -86 -49 -93 -50 -3 -95 -14 -135 -32 -33 -15 -64 -24 -69
-21 -6 4 -7 20 -1 43 13 58 11 181 -6 279 -19 108 -24 124 -36 124 -20 0 -116
-79 -183 -150 -147 -157 -184 -336 -87 -424 12 -11 21 -25 21 -32 0 -16 -130
-58 -249 -80 -74 -14 -85 -14 -98 -1 -20 19 -7 63 49 167 120 224 575 850 617
850 10 0 26 -9 37 -21 39 -43 114 -73 184 -74 96 0 180 44 286 149 79 79 228
289 221 310 -6 18 -105 28 -239 23 -71 -2 -130 -2 -133 1 -14 15 23 32 68 32
219 0 316 306 216 687 -23 86 -77 223 -88 223 -16 0 -212 -210 -270 -290 -189
-256 -201 -438 -35 -556 35 -25 64 -49 64 -54 0 -11 -100 -94 -137 -114 -52
-26 -63 -22 -63 27 0 123 -101 325 -237 476 l-49 54 -26 -44 c-107 -182 -151
-428 -104 -568 34 -99 123 -170 213 -171 23 0 44 -4 47 -9 7 -11 -124 -163
-137 -158 -6 2 -21 35 -33 74 -11 40 -34 93 -49 120 -45 78 -127 184 -139 180
-18 -6 -82 -142 -100 -211 -19 -78 -20 -187 -2 -239 20 -56 61 -103 106 -123
22 -10 40 -25 40 -33 0 -21 -62 -111 -77 -111 -6 0 -16 24 -22 53 -6 28 -24
73 -39 100 -59 103 -234 247 -404 333 -62 31 -69 33 -76 17 -15 -37 -7 -305
11 -373 53 -199 183 -340 316 -340 48 0 76 -11 70 -26 -2 -5 -37 -69 -78 -143
-41 -74 -98 -188 -128 -255 -77 -171 -106 -221 -282 -485 -163 -245 -256 -356
-382 -457 -72 -57 -116 -99 -167 -157 -18 -21 -37 -35 -42 -32 -22 14 -6 513
25 795 28 256 67 515 79 528 9 10 19 10 40 2 71 -27 157 0 226 71 49 51 121
194 150 299 11 41 20 81 20 89 0 33 -216 -25 -317 -86 -84 -50 -84 -49 -77 65
3 53 7 102 9 108 2 6 24 14 49 16 66 8 117 38 154 92 53 79 66 140 67 311 0
149 0 150 -22 148 -43 -5 -168 -89 -244 -165 -43 -43 -82 -78 -87 -78 -5 0
-20 28 -32 63 -13 34 -43 101 -67 149 -24 48 -43 94 -43 101 0 9 17 17 46 21
26 3 64 11 86 18 46 14 122 77 145 122 60 116 58 339 -6 574 l-12 43 -32 -18
c-18 -10 -82 -67 -142 -128 -85 -85 -120 -127 -149 -184 -41 -79 -66 -156 -66
-208 0 -40 -17 -43 -50 -8 -20 21 -22 29 -12 43 94 133 65 241 -110 415 -59
58 -105 97 -115 95 -36 -7 -69 -207 -53 -320 19 -135 85 -212 190 -225 l52 -6
64 -97 c55 -84 76 -130 60 -130 -3 0 -44 13 -93 29 -102 34 -224 60 -303 63
-53 3 -55 2 -52 -22 2 -14 18 -64 36 -112 108 -288 316 -444 510 -383 38 12
60 15 67 8 13 -13 45 -170 36 -179 -3 -4 -38 10 -75 30 -91 47 -342 105 -342
79 0 -6 9 -35 20 -67 46 -135 131 -250 215 -291 27 -14 62 -20 110 -21 64 -1
70 -3 73 -23 6 -36 -69 -402 -83 -407 -7 -3 -34 5 -61 18 -41 20 -49 28 -46
48 15 114 14 119 -15 182 -35 74 -116 168 -131 153 -18 -18 -52 -133 -52 -175
0 -28 -5 -43 -16 -47 -15 -6 -106 51 -138 86 -16 18 -16 21 3 52 28 46 27 112
-3 194 -13 37 -27 69 -31 73 -10 10 -62 -56 -91 -115 -13 -29 -29 -53 -34 -53
-11 0 -63 69 -87 114 -15 30 -15 30 36 74 67 58 84 92 85 168 0 109 -92 269
-248 432 -43 45 -82 82 -86 82 -12 0 -68 -132 -95 -224 -88 -307 3 -545 199
-522 l51 6 45 -77 c25 -42 75 -116 113 -164 37 -49 67 -93 67 -98 0 -6 -21
-19 -46 -30 -53 -24 -158 -97 -193 -134 l-23 -25 28 -15 c86 -44 240 -61 327
-35 21 6 52 24 67 40 36 35 45 35 104 -2 l48 -31 -65 -60 c-68 -61 -115 -125
-102 -137 4 -4 43 -7 88 -7 103 1 167 27 198 79 12 20 25 36 29 36 5 0 18 -12
30 -27 27 -33 29 18 -35 -683 -45 -497 -46 -505 -70 -525 -50 -41 -387 -233
-580 -330 -220 -111 -355 -167 -515 -214 -102 -29 -895 -191 -938 -191 -12 0
-22 5 -22 11 0 6 31 80 69 163 38 83 78 172 89 199 12 26 25 47 30 47 5 0 19
-11 31 -24 36 -39 83 -56 150 -56 76 0 152 26 240 81 77 48 191 139 191 151 0
14 -116 63 -195 83 -86 22 -214 25 -278 6 -26 -8 -50 -11 -54 -8 -3 3 1 31 8
61 13 52 21 60 157 185 78 72 149 131 157 131 7 0 17 -9 20 -21 11 -33 64 -59
120 -59 52 0 164 25 178 39 22 22 -126 121 -180 121 -12 0 -25 5 -29 11 -7 12
81 106 108 115 10 3 38 -7 65 -23 92 -54 197 -28 314 76 71 63 176 198 163
211 -5 5 -47 14 -94 20 -245 34 -450 -59 -450 -204 0 -32 -8 -42 -117 -131
-65 -52 -122 -94 -127 -92 -4 1 -17 35 -27 74 -10 39 -25 86 -34 103 l-17 32
-28 -27 c-80 -77 -110 -207 -61 -272 13 -17 21 -35 18 -40 -11 -17 -87 -66
-94 -60 -7 8 -82 432 -83 469 0 17 7 31 21 38 30 17 59 70 59 111 0 73 -78
259 -109 259 -30 0 -111 -184 -111 -253 0 -44 35 -109 69 -128 26 -15 29 -23
35 -90 4 -41 9 -90 12 -109 8 -60 -7 -67 -62 -30 -90 63 -264 124 -440 154
-41 7 -77 10 -79 6 -14 -23 39 -208 90 -316 108 -224 278 -334 409 -263 25 13
42 17 48 11 11 -11 -65 -309 -83 -327 -6 -6 -27 8 -57 37 -71 70 -217 129
-376 153 -55 9 -56 6 -26 -103 58 -209 194 -357 310 -337 27 5 40 3 40 -5 0
-37 -85 -143 -145 -180 -88 -54 -419 -88 -688 -70 -175 12 -301 32 -364 60
-51 22 -133 78 -133 89 0 5 26 12 58 16 93 11 134 24 130 42 -2 9 -28 37 -58
61 -30 25 -56 51 -58 59 -2 7 8 27 21 43 24 28 56 103 71 163 8 32 -2 34 -70
11 -102 -34 -164 -98 -164 -167 0 -30 -5 -39 -30 -52 -67 -35 -99 -31 -390 50
-289 80 -757 204 -850 225 -30 7 -63 17 -72 22 -48 24 3 141 106 243 69 69
122 98 169 93 31 -3 32 -5 35 -53 4 -76 9 -92 49 -136 43 -47 105 -81 189
-103 76 -19 262 -38 280 -28 11 6 7 22 -19 82 -18 42 -47 96 -64 120 -44 65
-136 148 -188 171 -25 11 -45 27 -45 35 0 10 -6 13 -18 10 -139 -42 -172 -47
-272 -47 -169 2 -179 15 -54 69 43 19 153 68 244 109 91 42 189 84 219 94 30
10 59 23 65 29 7 5 67 36 134 70 l123 60 39 -20 c58 -30 126 -27 181 8 84 54
211 214 189 236 -17 17 -198 12 -262 -7 -58 -18 -119 -61 -140 -101 -7 -11
-14 -39 -17 -61 -6 -37 -11 -43 -66 -72 -95 -51 -109 -45 -79 38 8 24 18 85
21 135 6 89 -11 278 -27 304 -25 41 -263 -177 -319 -291 -57 -117 -52 -220 15
-300 29 -35 33 -45 22 -55 -14 -14 -111 -54 -131 -54 -9 0 -12 24 -12 83 0 72
-4 90 -33 152 l-34 70 -24 -30 c-84 -101 -103 -219 -47 -286 13 -16 22 -33 18
-38 -7 -13 -143 -57 -150 -49 -4 3 -1 25 5 49 7 24 9 61 6 84 -9 55 -36 135
-46 135 -14 0 -81 -83 -101 -125 -23 -49 -24 -96 -4 -136 15 -28 15 -30 -10
-39 -34 -13 -155 -13 -288 1 -150 15 -162 19 -160 55 9 130 1 224 -19 224 -5
0 -36 -26 -68 -58 -41 -41 -62 -72 -71 -103 -7 -24 -16 -48 -20 -53 -5 -6 -42
-2 -91 9 -82 19 -84 20 -170 102 -47 46 -89 83 -92 83 -4 0 -13 -18 -22 -40
-12 -30 -22 -40 -38 -40 -31 1 -150 63 -154 81 -1 8 45 76 104 150 144 180
273 353 319 428 42 68 48 70 155 48 61 -13 57 -4 44 -110 -13 -97 60 -198 204
-284 69 -41 204 -103 225 -103 7 0 8 31 4 93 -7 99 -41 227 -77 285 -36 58
-31 63 63 56 45 -3 107 -9 137 -13 l55 -6 -3 -57 c-4 -56 -3 -58 43 -107 30
-32 75 -64 118 -86 98 -49 101 -48 93 25 -9 73 -28 132 -62 183 -14 22 -23 41
-20 44 3 3 25 9 48 14 38 7 48 4 83 -19 60 -40 134 -38 203 7 77 49 206 200
188 219 -4 4 -57 9 -116 10 -143 5 -208 -13 -267 -73 -29 -28 -43 -51 -43 -68
0 -16 -8 -30 -19 -37 -26 -13 -201 -13 -201 0 0 6 26 36 58 68 32 31 80 92
107 135 54 88 129 262 121 282 -3 10 -21 12 -68 8 -366 -27 -608 -204 -561
-410 9 -36 8 -46 -4 -50 -29 -11 -330 98 -348 126 -10 18 30 74 104 144 177
167 366 256 780 368 141 38 426 117 633 175 l378 106 202 -80 c230 -92 591
-226 718 -267 47 -15 89 -31 94 -36 6 -5 -4 -28 -25 -56 -32 -46 -34 -52 -34
-133 0 -76 4 -93 36 -160 35 -74 133 -212 182 -259 l26 -23 29 58 c70 139 97
302 67 404 -31 107 -32 100 12 100 30 0 50 -8 79 -31 63 -50 174 -160 174
-172 0 -7 -17 -21 -37 -32 -51 -28 -76 -81 -80 -174 -4 -82 15 -192 34 -198 6
-2 41 23 76 57 66 62 117 143 117 187 0 36 27 39 61 7 25 -24 29 -35 29 -82 0
-99 47 -152 168 -188 58 -18 227 -30 235 -17 12 19 -59 139 -118 199 -49 50
-72 65 -116 78 -52 15 -75 14 -130 -9 -13 -5 -34 17 -87 87 -39 51 -95 118
-126 148 -90 87 -88 88 124 65 211 -23 442 -29 535 -15 132 21 136 20 159 -24
69 -130 230 -136 460 -17 60 31 109 61 109 66 1 18 -105 83 -188 117 -70 28
-92 32 -175 32 -83 1 -100 -2 -137 -23 -24 -14 -54 -41 -67 -61 -21 -32 -32
-39 -82 -48 -109 -22 -124 -14 -78 41 57 68 110 212 129 350 8 58 6 58 -106
17 -101 -37 -160 -71 -223 -129 -83 -77 -114 -170 -82 -246 8 -18 12 -36 8
-39 -14 -15 -217 6 -236 25 -5 5 16 32 50 66 85 83 168 255 197 411 6 30 5 32
-22 32 -51 0 -185 -40 -269 -80 -91 -44 -182 -121 -214 -183 -21 -42 -27 -106
-15 -150 11 -42 -9 -43 -135 -7 -353 100 -748 243 -930 337 -111 58 -144 83
-135 105 6 16 304 141 317 133 6 -3 10 -18 10 -33 1 -36 32 -102 61 -129 13
-12 47 -32 74 -45 44 -20 65 -23 185 -23 143 0 270 19 270 40 0 20 -112 146
-171 193 -31 24 -83 54 -115 67 -33 13 -59 30 -59 37 0 13 217 117 246 118 13
0 17 -13 21 -62 8 -122 74 -204 198 -245 77 -25 317 -25 453 0 58 11 97 24 97
31 0 6 -28 47 -63 91 -128 162 -256 245 -430 280 -24 5 -27 8 -17 20 14 17
185 105 204 105 7 0 21 -9 31 -20 30 -33 99 -54 156 -47 67 8 128 45 216 130
71 68 151 172 141 182 -23 23 -241 33 -330 14 -115 -25 -202 -93 -214 -169 -4
-22 -12 -44 -19 -50 -21 -17 -195 -100 -211 -100 -19 0 -18 5 8 70 20 48 22
74 23 207 0 96 -4 156 -11 163 -7 7 -32 -3 -86 -39 -151 -98 -248 -229 -248
-333 0 -58 10 -80 59 -131 29 -30 33 -40 22 -47 -36 -21 -251 -103 -257 -97
-4 4 5 32 20 63 15 30 34 86 42 122 23 112 16 398 -11 408 -33 13 -231 -131
-313 -229 -74 -87 -105 -155 -110 -243 -5 -83 14 -131 73 -183 20 -17 33 -36
30 -41 -14 -23 -232 -81 -542 -145 -123 -25 -313 -68 -423 -95 -111 -28 -205
-50 -210 -50 -22 0 -7 37 44 114 30 44 77 106 104 136 l49 54 39 -41 c51 -54
104 -63 223 -39 107 22 127 32 109 53 -46 56 -140 110 -220 127 -39 9 -35 28
14 68 66 53 64 53 111 3 39 -41 48 -45 90 -45 25 0 70 9 99 20 57 22 169 97
176 117 5 16 -71 49 -148 67 -34 8 -55 18 -55 26 0 8 34 32 76 54 l77 41 36
-18 c86 -40 176 -7 256 94 42 53 100 158 100 180 0 16 -157 5 -225 -15 -79
-24 -143 -70 -165 -119 -11 -23 -20 -53 -20 -67 -1 -21 -18 -35 -117 -90 -65
-36 -160 -93 -212 -128 -53 -34 -101 -60 -107 -58 -14 5 -34 104 -34 169 0 49
0 49 28 43 71 -16 91 -17 130 -7 29 8 63 31 108 74 79 73 150 172 132 183 -27
17 -167 16 -243 -1 -42 -9 -79 -14 -83 -11 -12 13 123 176 145 176 8 0 26 -9
40 -20 38 -29 94 -26 175 12 38 17 67 36 65 42 -5 16 -86 56 -129 63 -67 10
-44 47 34 55 58 7 89 26 128 80 32 44 73 161 85 242 l7 49 -37 -6 c-20 -3 -66
-20 -102 -36 -135 -64 -203 -144 -203 -241 0 -53 -2 -58 -45 -100 -25 -24 -45
-42 -46 -40 -12 80 -45 194 -73 255 -38 82 -161 275 -175 275 -13 0 -64 -84
-105 -170 -53 -112 -80 -228 -73 -321 9 -136 62 -219 175 -270 34 -16 62 -31
62 -34 0 -3 -16 -35 -35 -71 -19 -36 -40 -86 -46 -110 -7 -25 -17 -44 -25 -44
-8 0 -35 20 -60 45 -73 70 -318 185 -394 185 -20 0 -21 -3 -14 -57 37 -305
204 -514 379 -473 50 11 60 2 46 -43 -12 -34 -127 -155 -186 -193 -32 -21 -39
-14 -54 60 -15 66 -77 194 -121 246 -30 34 -30 35 -46 15 -25 -31 -74 -139
-90 -197 -29 -112 -13 -199 47 -256 21 -20 39 -40 39 -45 0 -16 -202 -156
-247 -170 -26 -9 -104 -28 -173 -42 -159 -34 -334 -91 -435 -143 -145 -73
-286 -187 -342 -275 -20 -32 -27 -36 -39 -26 -38 31 -94 192 -115 327 -15 101
-10 110 52 83 28 -13 66 -21 105 -21 142 0 284 122 423 366 28 48 51 95 51
102 0 12 -26 14 -157 10 -182 -6 -246 -22 -356 -88 -38 -23 -71 -39 -75 -35
-3 3 0 20 7 38 7 18 21 66 32 107 26 100 40 120 85 120 69 0 130 53 183 158
26 51 61 152 61 174 0 30 -192 -25 -264 -76 -94 -67 -125 -143 -87 -215 17
-34 20 -71 5 -71 -2 0 -47 44 -101 98 -91 90 -236 194 -291 209 -24 6 -30 -16
-38 -157 -5 -80 -3 -125 10 -188 l17 -82 -35 -63 c-43 -76 -68 -169 -60 -217
9 -48 30 -87 54 -100 11 -6 20 -17 20 -26 0 -24 -59 -134 -73 -134 -6 0 -27
23 -46 50 -38 56 -108 123 -120 116 -15 -10 -31 -94 -31 -166 0 -83 14 -115
66 -157 l38 -30 -48 -77 c-63 -100 -125 -178 -136 -171 -6 4 -10 21 -10 39 0
82 -99 356 -129 356 -27 0 -129 -146 -166 -238 -51 -126 -43 -243 20 -307 19
-19 35 -39 35 -44 0 -15 -98 -63 -111 -55 -6 3 -9 18 -6 31 11 60 -58 270 -85
261 -23 -8 -87 -101 -108 -156 -24 -62 -26 -150 -5 -178 28 -37 18 -50 -52
-77 -66 -24 -201 -59 -275 -72 -24 -4 -39 -1 -44 7 -5 7 -7 110 -6 228 1 118
-2 253 -7 300 -7 63 -6 88 2 97 15 15 212 103 230 103 6 -1 21 -20 32 -43 16
-34 32 -48 85 -75 58 -30 150 -54 150 -39 0 3 -9 34 -20 69 -13 43 -34 81 -60
111 -22 25 -40 47 -40 50 0 3 35 24 78 47 42 23 113 66 158 96 58 39 90 54
115 54 101 1 177 84 209 226 12 52 15 267 5 284 -4 6 -34 -4 -78 -27 -103 -54
-227 -178 -256 -256 -26 -71 -26 -100 -1 -156 11 -24 20 -48 20 -55 0 -12 -98
-76 -116 -76 -7 0 -9 31 -6 84 4 68 0 99 -18 157 -25 84 -66 169 -80 169 -5 0
-30 -26 -55 -57 -121 -154 -148 -315 -68 -403 19 -22 32 -44 28 -49 -8 -14
-147 -57 -230 -73 -83 -15 -88 -9 -80 84 12 138 74 301 170 450 26 40 132 179
234 308 103 129 249 315 325 412 120 155 142 179 174 187 20 5 57 15 81 21 55
14 67 9 76 -32 13 -61 63 -95 145 -98 97 -5 150 0 150 14 0 20 -87 114 -122
132 -16 8 -28 20 -25 27 2 6 39 22 82 34 92 26 105 21 105 -40 0 -121 100
-200 288 -227 80 -12 285 -11 297 2 7 7 -21 64 -64 128 -49 72 -151 169 -209
197 -29 14 -51 30 -49 36 1 5 57 28 122 52 66 23 143 53 171 68 l51 26 74 -18
74 -17 -3 -52 c-5 -95 51 -180 176 -269 41 -30 67 -42 73 -36 17 17 22 147 9
217 -7 37 -10 69 -7 72 14 15 87 -23 109 -56 68 -101 175 -107 348 -21 36 18
76 41 89 50 l23 18 -51 32 c-132 85 -285 104 -371 47 l-42 -28 -92 36 c-50 20
-124 44 -164 54 -40 10 -74 23 -75 28 -2 12 25 28 206 126 82 44 154 77 161
75 7 -3 16 -20 20 -37 3 -18 23 -49 43 -70 46 -45 102 -57 195 -40 77 14 218
69 218 84 0 16 -83 78 -147 110 -28 14 -81 31 -117 38 -36 7 -66 17 -66 21 0
5 11 22 25 39 23 27 33 76 19 91 -3 3 -35 -26 -71 -64 -78 -82 -158 -143 -178
-136 -11 5 -12 13 -3 44 18 67 -11 281 -40 291 -7 2 -44 -27 -82 -64 -138
-133 -171 -276 -83 -351 15 -12 24 -27 20 -36 -10 -26 -344 -164 -360 -148 -4
4 1 27 12 52 35 80 52 309 22 309 -20 0 -132 -77 -179 -123 -97 -95 -119 -190
-62 -262 17 -21 30 -39 30 -42 0 -12 -357 -116 -376 -109 -11 4 -10 13 6 48
24 52 29 188 7 188 -25 0 -110 -69 -139 -111 -32 -48 -35 -77 -12 -121 20 -39
14 -43 -83 -57 -98 -15 -133 -14 -139 3 -3 7 74 133 170 278 204 309 364 566
409 657 l31 64 -21 35 c-11 20 -24 37 -29 39 -5 1 -29 -34 -53 -80z m9666
-1885 c11 -15 44 -41 74 -57 49 -27 62 -29 142 -28 48 1 87 -1 87 -5 0 -4 -23
-29 -50 -56 -68 -66 -104 -141 -98 -205 3 -29 14 -60 26 -76 12 -15 22 -33 22
-39 0 -11 -200 -126 -220 -126 -17 0 -12 9 36 73 25 34 55 78 65 99 l19 38
-26 6 c-44 11 -163 -5 -226 -30 -32 -13 -60 -20 -63 -16 -8 12 119 363 156
432 14 26 32 22 56 -10z m-9537 -221 c0 -10 -7 -36 -16 -57 -13 -30 -18 -85
-21 -241 -5 -223 5 -318 43 -424 13 -37 24 -75 24 -85 0 -24 -119 -235 -207
-369 -53 -80 -114 -147 -297 -331 -127 -127 -265 -256 -306 -286 -41 -31 -154
-95 -250 -143 -195 -97 -395 -208 -483 -267 -32 -22 -64 -38 -71 -35 -7 3 -28
79 -48 173 l-36 168 23 64 c13 36 27 68 32 73 6 6 29 1 58 -12 44 -20 55 -21
109 -11 62 12 207 79 213 99 2 6 -31 29 -73 50 -68 33 -89 38 -161 42 -80 3
-83 4 -77 25 19 60 24 68 42 60 93 -40 128 -46 242 -41 117 4 260 31 260 48 0
22 -162 176 -219 209 -33 19 -61 41 -61 47 0 12 208 123 230 123 5 0 10 -15
10 -32 0 -69 54 -120 166 -158 92 -32 97 -28 68 56 -24 71 -60 119 -110 145
-24 13 -44 27 -44 31 0 4 32 24 72 44 40 20 112 58 160 85 49 27 92 49 96 49
5 0 22 -11 38 -25 37 -32 62 -39 129 -33 61 5 225 79 225 102 0 12 -98 66
-147 81 -26 7 -28 17 -11 45 21 32 3 33 -68 0 -40 -18 -71 -27 -77 -21 -9 9
148 321 162 321 5 0 22 -5 39 -11 47 -16 95 4 158 68 80 82 77 87 -61 88 -54
0 -60 2 -57 20 2 11 23 38 47 60 52 48 65 72 65 119 0 55 8 66 49 66 21 0 58
11 82 24 48 25 59 25 59 -3z m9358 -418 c47 -8 38 -29 -26 -65 -68 -39 -86
-33 -77 25 10 56 13 60 44 52 14 -3 41 -9 59 -12z m-10916 -1014 l20 -47 -69
-133 c-37 -73 -73 -135 -80 -137 -12 -3 -36 90 -36 143 0 17 10 65 23 109 19
64 29 82 54 97 45 28 65 21 88 -32z m1308 -329 c58 -11 115 -22 128 -25 20 -5
22 -11 22 -75 0 -147 45 -244 133 -288 97 -47 84 -50 -722 -178 -228 -36 -435
-69 -460 -74 -59 -11 -69 -1 -47 48 32 70 134 154 426 352 157 107 305 209
330 227 25 18 54 33 65 33 11 0 67 -9 125 -20z m555 -104 c63 -15 63 -26 -1
-111 -55 -73 -74 -81 -74 -32 0 19 -7 56 -15 83 -8 27 -15 55 -15 62 0 15 37
14 105 -2z m322 -51 c87 -13 232 -33 322 -42 101 -11 165 -22 168 -30 3 -6
-28 -49 -67 -95 -40 -46 -90 -109 -112 -140 -38 -57 -40 -58 -86 -58 -26 0
-121 11 -212 24 -213 32 -383 48 -414 40 -27 -6 -41 8 -29 30 4 8 30 38 56 66
l48 52 24 -22 c13 -12 38 -25 57 -29 54 -13 167 23 233 73 19 14 17 16 -47 46
-37 17 -92 34 -122 37 -59 6 -67 16 -44 53 16 26 32 25 225 -5z m453 -555 c12
-7 12 -12 -4 -29 -11 -12 -26 -21 -34 -21 -17 0 -62 38 -62 52 0 11 81 10 100
-2z m1195 -198 c0 -18 -20 -15 -23 4 -3 10 1 15 10 12 7 -3 13 -10 13 -16z"/>
<path d="M3785 4688 c-30 -18 -84 -78 -69 -78 7 0 22 -13 33 -29 41 -57 112
-64 221 -22 30 12 66 30 79 40 l24 18 -47 28 c-27 15 -64 34 -84 41 -46 16
-130 17 -157 2z"/>
</g>
</svg>
