<?xml version="1.0" standalone="no"?>
<!DOCTYPE svg PUBLIC "-//W3C//DTD SVG 20010904//EN"
 "http://www.w3.org/TR/2001/REC-SVG-20010904/DTD/svg10.dtd">
<svg version="1.0" xmlns="http://www.w3.org/2000/svg"
 width="839.000000pt" height="1280.000000pt" viewBox="0 0 839.000000 1280.000000"
 preserveAspectRatio="xMidYMid meet">
<metadata>
Created by potrace 1.15, written by Peter Selinger 2001-2017
</metadata>
<g transform="translate(0.000000,1280.000000) scale(0.100000,-0.100000)"
fill="#000000" stroke="none">
<path d="M5261 12525 c-79 -37 -164 -109 -292 -246 -145 -156 -177 -179 -241
-179 -58 0 -101 20 -191 89 -96 74 -128 91 -169 91 -75 0 -136 -91 -209 -311
-91 -279 -115 -548 -87 -1007 17 -292 -4 -425 -80 -506 -39 -40 -67 -49 -102
-31 -102 53 -198 319 -315 874 -69 329 -67 326 -306 326 -163 0 -166 0 -207
27 -53 36 -79 82 -142 258 -102 285 -188 432 -302 516 -206 152 -491 113 -591
-81 -33 -66 -46 -131 -62 -317 -17 -192 -36 -275 -84 -349 -37 -59 -99 -90
-236 -120 -55 -12 -117 -30 -137 -40 -69 -35 -84 -105 -48 -220 44 -141 150
-298 357 -529 447 -498 639 -785 1107 -1652 131 -243 147 -283 148 -381 1 -87
-20 -121 -78 -125 -92 -7 -239 133 -415 394 -60 91 -179 251 -263 357 -221
277 -259 337 -390 621 -56 120 -100 177 -162 207 -50 24 -92 27 -284 18 -102
-4 -106 -3 -155 25 -27 16 -133 111 -235 211 -205 201 -271 257 -345 291 -59
28 -106 30 -145 8 -67 -40 -77 -123 -33 -287 39 -149 27 -176 -98 -217 -169
-57 -167 -129 13 -381 37 -53 74 -112 82 -131 33 -79 -19 -145 -176 -224 -119
-60 -175 -98 -199 -137 -73 -121 76 -320 481 -642 364 -289 693 -586 1116
-1009 341 -342 425 -433 513 -564 85 -127 121 -240 121 -388 0 -101 -21 -175
-65 -222 -31 -35 -37 -37 -92 -37 -76 0 -150 36 -308 148 -66 47 -165 108
-220 135 -102 50 -144 67 -435 171 -91 32 -235 84 -320 116 -406 150 -530 165
-619 76 -45 -45 -66 -102 -82 -219 -22 -166 8 -299 96 -432 27 -41 139 -165
260 -290 116 -120 242 -256 279 -301 156 -194 254 -371 319 -574 81 -253 106
-438 117 -865 12 -455 39 -633 155 -1030 79 -268 138 -542 172 -790 14 -103
18 -198 18 -395 -1 -245 -9 -344 -40 -492 -5 -23 -3 -21 14 12 15 29 20 33 17
15 -3 -14 -8 -42 -11 -62 -4 -21 -5 -38 -2 -38 7 0 82 312 104 430 23 129 23
436 -1 615 -23 173 -72 415 -145 725 -142 599 -161 723 -168 1054 -4 183 -2
247 6 242 6 -4 11 -22 11 -39 1 -53 15 -11 36 103 26 146 26 373 0 450 -22 65
-42 91 -31 43 13 -64 -3 -31 -50 100 -112 314 -152 371 -441 632 -100 89 -210
199 -245 243 -165 207 -248 409 -265 650 -8 111 -8 111 112 53 89 -43 153 -89
304 -221 58 -50 190 -148 294 -217 175 -117 326 -242 326 -272 0 -6 -18 -11
-42 -11 -24 0 -81 -7 -128 -15 -47 -8 -116 -16 -153 -17 -37 -2 -67 -4 -67 -6
0 -2 16 -10 35 -18 44 -18 120 -18 218 1 153 29 202 18 279 -61 107 -112 512
-652 676 -902 208 -316 332 -594 279 -623 -12 -7 -14 -16 -6 -42 16 -57 11
-80 -23 -102 -61 -39 -84 -110 -97 -305 l-7 -95 -52 102 c-123 242 -363 545
-663 838 l-102 100 48 -70 c63 -91 102 -139 265 -325 292 -332 374 -454 416
-620 21 -84 15 -244 -15 -352 -27 -98 -81 -248 -89 -248 -10 0 -130 182 -288
435 -186 299 -340 523 -351 512 -8 -9 30 -103 62 -152 18 -28 68 -98 112 -156
86 -113 195 -285 330 -519 67 -116 87 -161 90 -198 4 -40 -11 -93 -95 -346
l-100 -299 -25 50 c-14 27 -42 105 -63 174 -45 151 -65 200 -107 261 -65 98
-55 50 44 -203 88 -227 102 -287 96 -409 -6 -114 -25 -173 -127 -389 -64 -137
-111 -274 -110 -320 1 -27 17 8 107 233 46 116 87 213 89 216 9 9 -8 -87 -38
-210 -31 -127 -83 -284 -157 -468 -78 -194 -113 -312 -245 -812 -9 -34 -15
-45 -15 -30 -1 20 -3 22 -11 10 -29 -43 -73 -184 -90 -287 -14 -77 -26 -120
-35 -126 -30 -17 -68 -153 -96 -345 -6 -46 -13 -82 -15 -80 -1 2 -8 43 -14 92
-9 68 -10 114 -1 191 22 193 77 353 232 672 64 133 85 187 99 260 10 50 37
162 59 248 23 86 41 159 41 163 -1 4 -16 -34 -34 -84 -18 -50 -49 -122 -69
-160 -20 -38 -59 -140 -87 -228 -28 -87 -79 -229 -114 -315 -141 -346 -197
-598 -180 -809 6 -81 7 -82 33 -82 15 0 47 10 71 23 66 32 87 83 106 244 22
191 38 247 164 568 83 211 119 326 224 705 156 563 282 846 490 1105 22 28
180 192 351 365 171 173 354 367 406 430 53 63 172 207 265 320 369 446 594
659 810 770 164 84 288 105 724 125 598 27 760 46 886 104 70 33 127 86 149
138 22 52 19 151 -6 219 -44 116 -195 241 -424 350 -327 155 -676 264 -940
294 -244 27 -284 34 -357 56 -218 69 -268 221 -133 409 166 233 539 401 1135
509 552 101 1176 94 1704 -19 88 -18 188 -38 221 -44 303 -52 462 10 473 184
5 75 -9 124 -80 275 -27 57 -47 113 -46 124 5 34 83 82 217 135 195 76 452
240 579 370 102 104 152 217 152 342 0 87 -10 103 -106 166 -322 210 -752 254
-1614 167 -360 -36 -662 -109 -1035 -249 -211 -79 -330 -111 -449 -121 -70 -5
-86 -4 -86 7 0 26 129 187 202 252 162 144 324 244 763 469 331 170 450 241
620 368 357 268 617 576 755 897 50 117 70 203 70 300 0 166 -55 234 -217 267
-248 52 -408 22 -673 -124 -289 -160 -484 -246 -731 -324 -108 -34 -208 -76
-377 -160 -214 -105 -348 -156 -412 -156 -22 0 -23 1 -18 83 6 96 43 201 103
293 63 95 196 218 415 384 403 303 535 480 535 715 0 89 -13 120 -62 152 -25
16 -51 18 -251 15 -210 -2 -227 -1 -268 18 -66 32 -89 87 -81 194 3 44 25 155
48 246 67 268 64 404 -11 508 -59 82 -128 100 -219 57z m19 -155 c0 -6 -55
-106 -122 -223 -67 -116 -161 -283 -209 -370 -48 -87 -89 -155 -92 -150 -2 4
-15 51 -27 103 -18 78 -21 112 -16 190 3 52 2 101 -3 109 -7 10 17 46 89 131
106 125 180 185 257 206 59 16 123 18 123 4z m145 -123 c34 -68 34 -169 -1
-348 -43 -226 -34 -331 34 -402 38 -40 89 -50 264 -51 142 -1 159 -3 184 -22
15 -11 31 -32 35 -46 20 -76 -65 -278 -176 -415 -36 -45 -127 -140 -203 -210
-256 -240 -344 -328 -403 -406 -112 -149 -162 -293 -157 -451 l3 -81 33 -3
c51 -5 185 33 311 89 249 109 353 150 541 209 220 70 362 124 565 216 77 34
180 74 229 88 99 29 284 56 382 56 85 0 84 -16 -3 -78 -37 -26 -137 -101 -222
-168 -206 -159 -267 -204 -274 -204 -4 0 -8 51 -9 113 -3 103 -4 110 -16 82
-8 -16 -18 -73 -23 -125 -5 -52 -14 -109 -19 -126 -13 -39 -70 -93 -165 -155
-606 -401 -789 -515 -970 -600 -112 -53 -249 -109 -266 -109 -14 0 -8 45 27
223 14 70 24 133 22 139 -10 28 -48 -98 -62 -204 -25 -193 -63 -244 -260 -344
-165 -84 -275 -150 -541 -325 -210 -138 -446 -279 -466 -279 -16 0 32 294 76
465 46 178 96 332 170 515 122 302 141 331 258 386 28 14 41 23 27 20 -14 -2
-46 -8 -72 -11 l-47 -7 48 113 c64 153 140 353 221 589 l68 195 143 102 c193
137 434 286 797 494 166 95 300 174 298 176 -6 7 -354 -171 -495 -252 -174
-100 -353 -214 -530 -339 -192 -134 -175 -126 -167 -80 12 65 95 404 116 473
11 35 19 66 17 68 -7 7 -67 -163 -132 -376 -67 -215 -92 -289 -105 -304 -12
-13 -78 201 -102 330 -22 114 -23 140 -23 697 l0 578 50 -4 c28 -3 88 -21 133
-42 46 -20 107 -40 135 -44 57 -8 64 -19 66 -102 1 -25 15 -115 32 -200 25
-123 30 -171 26 -234 l-5 -79 34 70 c40 83 104 146 241 240 50 35 117 86 148
115 105 96 15 63 -115 -42 -70 -56 -149 -104 -158 -96 -6 7 143 294 212 410
36 59 83 132 106 162 l41 54 34 -26 c19 -14 45 -49 60 -77z m-3081 16 c202
-50 364 -180 503 -405 89 -144 178 -229 338 -323 238 -140 291 -220 385 -577
91 -343 145 -446 280 -537 66 -43 103 -51 136 -26 22 17 34 19 34 5 0 -5 -17
-18 -37 -29 -32 -16 -35 -21 -20 -27 32 -12 67 13 92 69 37 80 55 218 65 511
15 405 44 654 106 876 28 105 88 280 95 280 11 0 30 -148 40 -309 5 -80 6
-258 3 -396 -10 -380 12 -620 73 -800 43 -126 39 -153 -57 -425 -95 -271 -150
-401 -219 -520 l-49 -84 -7 39 c-4 22 -26 74 -48 115 -109 201 -109 200 -105
272 3 57 11 81 57 168 40 78 54 115 57 158 5 56 5 56 -10 30 -9 -15 -28 -60
-42 -100 -34 -97 -85 -208 -95 -208 -10 0 -104 117 -157 196 -35 52 -78 133
-130 244 l-12 25 6 -25 c23 -100 99 -244 278 -525 181 -283 210 -406 140 -600
-20 -55 -78 -221 -129 -370 l-93 -270 -65 135 c-76 160 -136 299 -285 665
-132 324 -164 395 -236 522 -119 213 -123 288 -32 547 49 138 82 266 69 266
-2 0 -22 -38 -44 -84 -41 -88 -93 -267 -105 -362 -3 -30 -10 -56 -14 -59 -6
-3 -89 87 -156 170 -14 17 -14 16 0 -8 65 -109 84 -143 131 -236 29 -59 81
-171 115 -251 34 -80 128 -280 207 -445 174 -360 241 -510 292 -659 65 -190
85 -286 85 -421 0 -185 -31 -311 -157 -630 l-71 -180 -23 50 c-13 28 -39 102
-59 165 -20 63 -47 137 -61 163 -29 57 -88 124 -133 151 l-32 18 7 -23 c4 -13
26 -48 49 -78 95 -123 106 -144 152 -284 51 -159 65 -265 45 -357 -7 -30 -41
-127 -76 -215 -64 -162 -195 -546 -195 -574 0 -30 -17 6 -60 124 -169 474
-471 1027 -798 1459 -89 118 -148 186 -313 366 -226 246 -325 374 -384 493
-60 122 -67 173 -72 540 -3 180 -2 348 1 372 l7 44 49 -18 c62 -23 120 -66
161 -117 28 -35 82 -140 207 -404 22 -47 64 -121 93 -165 28 -44 83 -136 122
-205 172 -306 290 -446 439 -520 55 -27 109 -45 156 -52 39 -6 69 -15 66 -20
-9 -15 50 -30 95 -24 55 7 127 43 152 75 39 49 14 159 -63 282 -30 48 -78 140
-107 205 -143 323 -240 499 -456 824 -154 233 -545 779 -695 972 -178 227
-250 360 -250 461 0 72 38 97 192 128 185 38 202 57 211 234 6 129 38 291 73
378 26 64 87 157 104 157 17 0 111 -150 166 -264 70 -146 118 -294 203 -621
66 -256 134 -473 168 -538 l15 -30 -29 7 c-62 16 -279 131 -473 252 -209 131
-400 233 -502 271 -144 52 7 -40 238 -145 83 -38 207 -105 275 -149 68 -44
178 -111 244 -148 195 -111 280 -172 364 -260 l78 -83 -49 81 c-135 225 -247
523 -353 947 -58 233 -109 389 -157 484 -35 70 -98 165 -122 185 -41 35 -8 36
118 4z m-1429 -1757 c57 -28 102 -62 183 -139 187 -179 221 -200 392 -253 71
-22 104 -37 102 -46 -35 -133 -40 -280 -18 -494 8 -77 18 -186 21 -244 l6
-105 -43 49 c-81 91 -219 289 -350 500 -267 432 -390 611 -497 726 l-42 45 40
-80 c23 -44 86 -138 142 -210 128 -164 171 -229 414 -615 294 -469 453 -691
621 -870 53 -56 63 -71 44 -65 -59 18 -196 95 -350 195 -220 144 -304 184
-464 225 -72 18 -178 52 -236 75 -171 69 -238 89 -365 111 -116 20 -178 40
-219 72 -19 14 -12 20 112 101 192 127 229 178 220 305 -4 49 -16 88 -47 155
-76 164 -76 186 5 295 60 82 65 106 38 183 -8 26 -14 61 -12 80 4 41 27 48
145 44 72 -2 91 -7 158 -40z m6345 -218 c22 -127 -22 -278 -126 -435 -183
-277 -886 -838 -1584 -1263 -297 -181 -454 -321 -531 -474 -54 -107 -52 -148
7 -165 45 -13 134 4 264 50 529 187 965 295 1390 343 584 67 1138 28 1565
-111 44 -14 84 -28 88 -31 5 -2 -14 -27 -41 -56 -28 -28 -86 -106 -131 -173
-44 -67 -95 -138 -112 -158 -48 -54 -136 -113 -313 -210 -184 -100 -226 -127
-289 -188 -74 -73 -83 -95 -78 -217 9 -260 8 -273 -21 -317 -19 -28 -45 -50
-85 -70 -57 -28 -61 -28 -233 -28 -115 1 -212 6 -282 18 -255 40 -1148 49
-1448 13 -596 -71 -995 -231 -1299 -522 -44 -41 -88 -92 -99 -112 -11 -20 -31
-59 -46 -86 -42 -80 -30 -144 38 -204 77 -67 176 -99 406 -132 450 -65 786
-192 1070 -406 202 -152 296 -305 246 -402 -40 -77 -146 -105 -481 -127 -644
-42 -899 -82 -1143 -180 -47 -19 -88 -33 -90 -30 -5 4 8 11 81 39 51 21 48 39
-4 21 -23 -8 -50 -15 -61 -15 -53 0 -207 -109 -260 -183 l-23 -32 33 24 c18
13 35 21 38 19 2 -3 -40 -43 -95 -88 -59 -50 -102 -93 -106 -108 -3 -13 -38
-59 -78 -101 -150 -158 -385 -469 -612 -811 -90 -135 -191 -275 -224 -312 -52
-56 -72 -70 -133 -94 -57 -22 -87 -41 -147 -99 -76 -72 -118 -102 -128 -91 -3
3 6 51 21 107 18 67 26 113 21 135 -8 43 22 104 67 135 18 13 82 48 143 77
115 56 156 87 182 136 l16 30 -24 -16 c-108 -70 -229 -129 -229 -111 0 4 20
57 44 118 47 117 66 195 47 195 -6 0 -11 -10 -12 -22 -1 -20 -2 -19 -14 8 -11
24 -12 47 -5 95 12 82 39 109 136 133 77 19 247 87 353 141 83 41 97 43 130
11 31 -28 71 -43 71 -25 0 6 -14 27 -30 46 -17 19 -28 39 -25 44 4 5 28 20 54
33 46 24 83 56 64 56 -5 0 -104 -47 -219 -104 -214 -107 -348 -159 -442 -172
-48 -6 -52 -5 -46 12 4 11 23 41 42 67 34 48 81 199 97 317 4 27 12 56 19 66
9 11 60 29 142 49 198 50 286 88 320 140 26 40 10 41 -50 1 -30 -20 -87 -49
-128 -65 -66 -27 -212 -61 -259 -61 -30 0 -22 30 22 82 45 53 76 123 114 254
30 102 30 106 5 76 -10 -12 -33 -65 -50 -118 -18 -52 -34 -93 -36 -91 -8 8 55
266 75 305 33 65 91 107 183 132 349 94 1169 220 1433 220 57 0 68 -3 95 -27
26 -24 33 -42 50 -126 11 -53 28 -112 37 -130 l18 -32 3 34 c4 38 -20 156 -49
238 l-19 56 63 -7 c107 -12 246 -52 452 -131 217 -83 321 -119 375 -129 44 -8
43 -7 -175 88 -232 101 -350 144 -480 174 -98 23 -131 26 -295 26 -122 0 -253
-8 -383 -22 -108 -12 -234 -22 -278 -22 l-81 0 6 28 c11 45 62 147 111 223 25
39 44 73 42 75 -10 11 -72 -73 -122 -166 -59 -112 -92 -152 -134 -169 -89 -36
-781 -165 -797 -149 -2 3 6 52 20 109 13 57 27 123 31 147 6 36 10 42 26 37
16 -5 19 -1 19 29 0 20 7 80 15 134 32 215 65 326 111 376 25 26 168 99 277
141 26 10 46 19 45 21 -6 6 -204 -45 -256 -65 -28 -11 -52 -16 -52 -11 0 26
85 337 138 503 68 214 82 236 187 289 33 17 150 61 260 98 110 37 340 118 510
180 171 62 423 152 560 200 138 49 310 111 383 139 259 98 378 133 482 138
201 11 360 -56 850 -357 118 -72 274 -160 345 -196 130 -63 306 -129 328 -121
7 2 -6 9 -28 16 -84 27 -391 186 -650 336 -281 164 -528 293 -653 341 -40 15
-69 31 -65 35 13 11 195 62 563 158 190 49 399 106 465 127 206 63 248 74 297
74 63 0 90 -12 173 -75 87 -66 154 -107 230 -140 90 -40 50 -5 -77 67 -98 56
-188 131 -188 157 0 10 122 44 215 60 33 6 162 22 286 36 126 14 271 36 330
51 107 27 150 43 116 44 -23 0 -521 -73 -711 -105 -238 -41 -544 -102 -745
-151 -101 -24 -188 -44 -193 -44 -5 0 28 45 74 100 99 120 172 221 200 274
l20 39 -30 -22 c-36 -25 -85 -83 -175 -207 -78 -107 -146 -173 -213 -207 -27
-14 -146 -50 -264 -82 -465 -123 -809 -234 -1730 -555 -636 -222 -1029 -354
-1034 -349 -5 5 72 254 118 382 l38 108 137 69 c177 90 329 178 606 350 l226
141 47 -27 c131 -75 149 -84 183 -84 62 0 52 12 -37 46 -53 20 -99 45 -120 65
l-33 32 41 51 c72 90 141 187 262 366 l117 175 -68 -70 c-37 -38 -120 -146
-183 -240 -63 -93 -143 -200 -177 -236 -98 -104 -446 -337 -678 -454 -114 -57
-281 -122 -290 -113 -8 8 17 84 76 224 63 152 83 226 94 344 11 117 39 195 88
244 86 85 862 576 1182 748 291 156 800 400 875 420 59 15 129 21 330 28 244
9 350 21 350 41 0 13 -114 11 -275 -6 -154 -16 -363 -19 -383 -6 -14 8 48 58
434 349 110 83 288 226 395 318 217 186 320 264 430 323 l74 41 22 -47 c12
-26 27 -77 33 -115z m-6781 -1004 c687 -206 1092 -387 1428 -637 142 -107 360
-324 461 -462 164 -221 313 -492 538 -976 213 -456 233 -504 250 -577 21 -90
15 -131 -50 -335 -31 -95 -71 -231 -91 -302 -19 -70 -37 -130 -39 -132 -2 -3
-41 42 -87 99 -86 108 -273 305 -322 340 l-29 21 16 -31 c19 -36 96 -133 238
-300 141 -165 152 -188 146 -305 -4 -75 -14 -120 -55 -247 -28 -85 -77 -254
-108 -375 -32 -121 -62 -224 -67 -230 -7 -6 -28 9 -60 45 -131 144 -248 308
-323 459 -71 140 -85 190 -96 346 -17 251 -26 311 -54 374 -15 33 -37 68 -48
78 -20 17 -20 17 -13 -2 4 -11 21 -74 37 -141 33 -135 48 -272 40 -353 l-6
-55 -30 44 c-80 118 -245 311 -394 464 -295 300 -605 551 -1079 874 -94 63
-158 113 -152 117 17 10 154 -4 235 -25 39 -10 141 -45 227 -79 87 -33 240
-85 340 -116 312 -95 356 -114 548 -238 238 -152 327 -184 434 -153 30 9 75
32 100 51 25 19 46 34 46 32 0 -1 -7 -26 -14 -55 -14 -52 -14 -53 4 -37 26 24
56 92 64 147 4 26 2 91 -4 145 -6 54 -11 124 -12 156 -2 69 -18 77 -18 10 l-1
-48 -21 25 c-11 14 -70 124 -129 245 -92 185 -121 236 -189 320 -223 275 -619
671 -940 940 -118 99 -291 254 -385 346 -93 91 -210 199 -260 239 -161 132
-226 208 -270 313 -11 27 -12 37 -3 37 6 0 95 -25 197 -56z m2511 -694 c0 -5
-10 -10 -22 -9 -22 0 -22 1 -3 9 11 5 21 9 23 9 1 1 2 -3 2 -9z m-551 -5681
c-7 -13 -54 -67 -105 -121 -51 -53 -96 -109 -100 -123 -3 -13 -10 -22 -15 -20
-4 3 -4 17 1 31 14 37 12 39 -10 13 l-19 -24 -1 27 c0 18 13 42 37 69 39 43
214 182 221 175 2 -2 -2 -15 -9 -27z m-308 -296 c-15 -38 -38 -99 -51 -138
-12 -38 -25 -73 -29 -77 -13 -15 8 159 25 200 15 39 55 82 75 82 4 0 -5 -30
-20 -67z"/>
<path d="M4750 10100 c-6 -11 -22 -69 -35 -130 -34 -155 -50 -181 -134 -219
l-44 -19 69 0 c77 0 121 -15 254 -85 47 -25 96 -48 110 -52 22 -7 21 -3 -15
34 -47 49 -126 91 -218 116 l-66 18 23 46 c34 66 63 166 71 244 8 69 4 82 -15
47z"/>
<path d="M3914 6482 c-22 -21 -65 -86 -98 -146 -68 -127 -114 -177 -199 -217
l-62 -29 40 0 c94 -1 139 -43 201 -190 30 -70 80 -150 93 -150 12 0 -82 223
-113 271 -14 21 -40 49 -58 64 l-33 26 66 67 c43 44 82 98 114 157 26 50 61
111 76 138 35 57 25 60 -27 9z"/>
<path d="M2530 6451 c-5 -11 -10 -32 -10 -48 l1 -28 13 25 c21 39 29 70 17 70
-6 0 -15 -9 -21 -19z"/>
<path d="M2510 6351 c0 -6 5 -13 10 -16 6 -3 10 1 10 9 0 9 -4 16 -10 16 -5 0
-10 -4 -10 -9z"/>
<path d="M1587 1548 c-14 -45 -25 -84 -23 -86 2 -2 16 33 31 78 15 45 25 83
23 85 -2 3 -16 -32 -31 -77z"/>
</g>
</svg>
